HIERARCHY
ROOT Hips
{
	OFFSET 0.000000 0.000000 0.000000
	CHANNELS 6 Xposition Yposition Zposition Zrotation Yrotation Xrotation 
	JOINT LHipJoint
	{
		OFFSET 0.000000 0.000000 0.000000
		CHANNELS 3 Zrotation Yrotation Xrotation
		JOINT LeftUpLeg
		{
			OFFSET 1.363060 -1.794630 0.839290
			CHANNELS 3 Zrotation Yrotation Xrotation
			JOINT LeftLeg
			{
				OFFSET 2.448110 -6.726130 0.000000
				CHANNELS 3 Zrotation Yrotation Xrotation
				JOINT LeftFoot
				{
					OFFSET 2.562200 -7.039590 0.000000
					CHANNELS 3 Zrotation Yrotation Xrotation
					JOINT LeftToeBase
					{
						OFFSET 0.157640 -0.433110 2.322550
						CHANNELS 3 Zrotation Yrotation Xrotation
						End Site
						{
							OFFSET 0.000000 0.000000 0.000000
						}
					}
				}
			}
		}
	}
	JOINT RHipJoint
	{
		OFFSET 0.000000 0.000000 0.000000
		CHANNELS 3 Zrotation Yrotation Xrotation
		JOINT RightUpLeg
		{
			OFFSET -1.305520 -1.794630 0.839290
			CHANNELS 3 Zrotation Yrotation Xrotation
			JOINT RightLeg
			{
				OFFSET -2.542530 -6.985550 0.000000
				CHANNELS 3 Zrotation Yrotation Xrotation
				JOINT RightFoot
				{
					OFFSET -2.568260 -7.056230 0.000000
					CHANNELS 3 Zrotation Yrotation Xrotation
					JOINT RightToeBase
					{
						OFFSET -0.164730 -0.452590 2.363150
						CHANNELS 3 Zrotation Yrotation Xrotation
						End Site
						{
							OFFSET 0.000000 0.000000 0.000000
						}
					}
				}
			}
		}
	}
}
MOTION
Frames: 22
Frame Time: 0.008333
3.314988 16.568136 -1.372447 -176.920549 79.763856 -173.163973 -9.852251 2.379911 -1.075940 -21.000565 11.645183 -8.395726 -2.926076 0.130085 22.487758 2.633768 8.754566 -25.896335 -3.638700 0.000000 -0.427900 9.926778 0.855778 -0.946353 1.483164 -11.304628 -34.992213 0.709118 -3.061172 47.038990 -4.200554 -18.463422 -17.623294 2.511900 0.000001 -32.759699
3.521125 16.652231 -1.435213 -173.836237 79.022369 -169.987820 -9.999611 2.492691 -0.735158 -19.887206 11.243876 -6.593871 -2.858393 -0.043210 19.912008 2.423675 8.247685 -24.235613 -3.160201 -0.000000 -2.243899 9.695051 0.833047 -0.979709 3.293228 -11.901355 -35.713748 0.914733 -2.872135 45.068030 -4.293958 -18.493838 -17.760787 2.536600 -0.000001 -33.026900
3.729633 16.741326 -1.497786 -171.293708 78.145511 -167.366079 -10.197633 2.637298 -0.369916 -18.711912 10.802891 -4.880685 -2.765049 -0.176536 17.460173 2.200587 7.774350 -22.321518 -2.667400 -0.000000 -4.372200 9.436604 0.775854 -1.019655 5.125524 -12.540540 -36.230153 1.143116 -2.653815 42.839284 -4.321702 -18.230705 -17.712044 2.466600 -0.000001 -34.104500
3.939407 16.834530 -1.558397 -169.388829 77.116256 -165.401170 -10.431777 2.810528 0.002971 -17.503040 10.341351 -3.290025 -2.649248 -0.261295 15.227692 1.968462 7.318988 -20.161776 -2.166000 0.000000 -6.904400 9.166555 0.684572 -1.058560 6.905293 -13.214883 -36.524408 1.390287 -2.410938 40.354523 -4.274509 -17.686347 -17.387571 2.276100 -0.000000 -36.109600
4.149348 16.931211 -1.615572 -168.116177 75.933682 -164.094090 -10.681016 3.009201 0.367175 -16.288030 9.876175 -1.849239 -2.517436 -0.291887 13.289428 1.732417 6.866969 -17.764933 -1.664200 0.000000 -9.970200 8.904921 0.566192 -1.089138 8.562441 -13.909894 -36.581081 1.649811 -2.146376 37.619489 -4.149509 -16.904948 -16.714392 1.956800 0.000000 -39.021500
4.358657 17.030758 -1.668245 -167.410235 74.610934 -163.382026 -10.923833 3.229069 0.709074 -15.095405 9.417011 -0.579381 -2.377046 -0.266707 11.697865 1.499572 6.411240 -15.145291 -1.174300 -0.000000 -13.682700 8.671930 0.432565 -1.104948 10.032511 -14.602331 -36.389831 1.912660 -1.861667 34.649130 -3.951726 -15.957227 -15.650402 1.521200 -0.000001 -42.661500
4.566703 17.132634 -1.715848 -167.164183 73.172118 -163.159561 -11.144651 3.464481 1.017499 -13.947366 8.972096 0.504157 -2.233752 -0.187379 10.484189 1.277744 5.950925 -12.313904 -0.709999 0.000000 -18.200300 8.483256 0.296637 -1.101639 11.265544 -15.258148 -35.939286 2.167531 -1.557368 31.464824 -3.695114 -14.936530 -14.187547 0.997600 -0.000000 -46.697100
4.773133 17.236172 -1.758226 -167.274095 71.646764 -163.319804 -11.332467 3.707144 1.285200 -12.867775 8.541884 1.391363 -2.091397 -0.060001 9.663383 1.077119 5.493627 -9.310409 -0.289000 0.000000 -23.437600 8.349912 0.170309 -1.075981 12.222988 -15.837479 -35.227220 2.401363 -1.235738 28.102990 -3.400883 -13.946617 -12.347578 0.418900 -0.000001 -50.759300
4.977766 17.340503 -1.795577 -167.641251 70.067541 -163.760226 -11.482564 3.947613 1.507253 -11.875005 8.128766 2.077874 -1.951468 0.106745 9.238541 0.907356 5.050104 -6.189595 0.073200 0.000000 -29.176300 8.276715 0.062008 -1.026794 12.885143 -16.298043 -34.256788 2.600905 -0.901246 24.612755 -3.095262 -13.092173 -10.179186 -0.187200 0.000000 -54.489100
5.180517 17.444567 -1.828474 -168.183788 68.468209 -164.395328 -11.594250 4.176173 1.681000 -10.984656 7.737207 2.565824 -1.814134 0.302235 9.204569 0.776572 4.634255 -3.026100 0.365400 0.000000 -35.009700 8.263338 -0.023690 -0.954937 13.249658 -16.604119 -33.044646 2.754509 -0.561952 21.061622 -2.804868 -12.463416 -7.751840 -0.806500 0.000000 -57.624000
5.381463 17.547065 -1.857791 -168.838166 66.882612 -165.158806 -11.669661 4.384536 1.805376 -10.207942 7.377921 2.863844 -1.679138 0.515333 9.549847 0.689718 4.262476 0.097026 0.584500 0.000000 -40.411900 8.304667 -0.086258 -0.864241 13.335325 -16.736035 -31.626313 2.854691 -0.229793 17.541213 -2.552018 -12.118964 -5.159960 -1.436600 -0.000000 -59.979800
5.580668 17.646610 -1.884619 -169.552249 65.343576 -165.998859 -11.713443 4.567579 1.880628 -9.548995 7.072753 2.985636 -1.545431 0.736149 10.252528 0.648296 3.957402 3.120702 0.739200 -0.000000 -45.015000 8.391559 -0.128989 -0.761687 13.182580 -16.697891 -30.058807 2.899844 0.080175 14.166553 -2.350404 -12.072886 -2.514483 -2.081800 -0.000000 -61.500100
5.778113 17.741782 -1.910241 -170.278019 63.883016 -166.871759 -11.733370 4.723337 1.906727 -8.998483 6.859769 2.947474 -1.410982 0.956707 11.278516 0.651532 3.747633 6.023499 0.849099 -0.000000 -48.768300 8.510840 -0.158008 -0.656714 12.853256 -16.513783 -28.413266 2.895164 0.352759 11.066224 -2.204074 -12.290310 0.054066 -2.739001 0.000000 -62.135600
5.973651 17.831384 -1.936067 -170.970932 62.531994 -167.739581 -11.738764 4.851397 1.883755 -8.536614 6.785029 2.767143 -1.274686 1.169763 12.588638 0.697308 3.664691 8.779667 0.940099 0.000000 -51.562000 8.647461 -0.180901 -0.558794 12.421561 -16.221191 -26.765224 2.850846 0.575859 8.357523 -2.108191 -12.700549 2.429012 -3.395300 -0.000000 -62.010000
6.167206 17.914462 -1.963462 -171.590834 61.320693 -168.564465 -11.740452 4.952356 1.811467 -8.134004 6.903412 2.452796 -1.136294 1.369189 14.141924 0.782409 3.740730 11.371138 1.043000 -0.000000 -53.408200 8.785768 -0.205273 -0.469731 11.960497 -15.837802 -25.181338 2.778682 0.744155 6.124158 -2.055067 -13.226968 4.513229 -4.027400 0.000000 -61.235300
6.358540 17.990292 -1.993510 -172.104007 60.274719 -169.315203 -11.749566 5.026476 1.687118 -7.753419 7.271930 2.011944 -0.996640 1.550418 15.897005 0.903118 4.008140 13.779585 1.191700 -0.000000 -54.379900 8.911587 -0.237333 -0.385992 11.530741 -15.360486 -23.701776 2.689171 0.858996 4.400112 -2.036401 -13.806010 6.250561 -4.612000 -0.000001 -59.956200
6.547517 18.058267 -2.026863 -172.494610 59.410058 -169.979819 -11.773683 5.073778 1.507235 -7.362172 7.932521 1.461042 -0.858450 1.710680 17.811441 1.055479 4.502802 15.976820 1.422000 0.000000 -54.522000 9.015836 -0.280939 -0.303821 11.171610 -14.786797 -22.340242 2.590413 0.925166 3.169878 -2.042006 -14.385741 7.648438 -5.134400 -0.000000 -58.443699
6.734129 18.117906 -2.063618 -172.765585 58.732917 -170.562812 -11.815260 5.094500 1.269683 -6.938651 8.906988 0.820433 -0.726385 1.849151 19.845247 1.234957 5.262225 17.920070 1.769900 0.000000 -53.857200 9.094821 -0.337440 -0.219223 10.900283 -14.116972 -21.098324 2.488063 0.947937 2.396511 -2.061106 -14.919620 8.746878 -5.583400 -0.000000 -56.970800
6.918829 18.168785 -2.103708 -172.933384 58.241166 -171.066754 -11.872259 5.090077 0.978363 -6.476228 10.194611 0.089106 -0.606480 1.966796 21.972999 1.435630 6.314332 19.548191 2.263200 0.000000 -52.401500 9.148712 -0.406882 -0.121860 10.719164 -13.341286 -19.988886 2.385709 0.932856 2.036416 -2.085004 -15.375014 9.603388 -5.955600 0.000000 -55.604900
7.101823 18.210461 -2.146483 -173.028468 57.916525 -171.528963 -11.937563 5.062775 0.634713 -5.976026 11.764760 -0.689952 -0.504258 2.068432 24.157162 1.651252 7.674420 20.797212 2.915800 -0.000000 -50.184400 9.184486 -0.487165 -0.021879 10.613199 -12.518872 -18.990640 2.286865 0.882476 2.025461 -2.097738 -15.692263 10.313221 -6.244300 0.000000 -54.636100
7.283557 18.242512 -2.191283 -173.084796 57.733706 -171.978512 -12.002348 5.016540 0.245759 -5.448049 13.567602 -1.493727 -0.423983 2.160493 26.373843 1.874316 9.324827 21.597234 3.712800 0.000001 -47.283500 9.210659 -0.576096 0.075484 10.560162 -11.699281 -18.089082 2.193355 0.800737 2.294693 -2.087813 -15.831807 10.961959 -6.448800 -0.000000 -54.157600
7.464809 18.264611 -2.237375 -173.143653 57.661268 -172.439526 -12.055864 4.957207 -0.175056 -4.917247 15.533653 -2.318979 -0.367746 2.249875 28.609152 2.096844 11.212594 21.885634 4.605500 -0.000000 -43.842700 9.237235 -0.670838 0.168700 10.531613 -10.928779 -17.286499 2.105578 0.692459 2.786350 -2.047969 -15.764517 11.602955 -6.564599 -0.000000 -54.113101
